<svg width="40" height="40" viewBox="0 0 40 40" fill="none" xmlns="http://www.w3.org/2000/svg">
<path d="M14.8838 28.2461C14.8838 28.2461 15.0828 31.5811 14.7643 31.9563C14.4458 32.3315 7 34.9995 7 34.9995" stroke="#FF4300" stroke-width="3" stroke-miterlimit="10" stroke-linecap="round" stroke-linejoin="round"/>
<path d="M24.5409 28.2461C24.5409 28.2461 24.3419 31.5811 24.6604 31.9563C24.9789 32.3315 32.4247 34.9995 32.4247 34.9995" stroke="#FF4300" stroke-width="3" stroke-miterlimit="10" stroke-linecap="round" stroke-linejoin="round"/>
<path d="M29 17.1133C29 24.2069 24.9811 30 20 30C15.0189 30 11 24.266 11 17.1133C11 9.96059 15.0189 6 20 6C24.9811 6 29 10.0197 29 17.1133Z" stroke="#FF4300" stroke-width="3" stroke-miterlimit="10" stroke-linecap="round" stroke-linejoin="round"/>
<path d="M18.0002 24.4152C19.2488 24.7497 22.1968 24.7351 24.0002 22.0003" stroke="#FF4300" stroke-width="2" stroke-linecap="round"/>
</svg>
