<svg width="92" height="54" viewBox="0 0 92 54" fill="none" xmlns="http://www.w3.org/2000/svg">
<g clip-path="url(#clip0_7648_45445)">
<path d="M5.29307 32.0377C5.68185 33.0933 6.22011 33.9959 6.90794 34.7454C7.59578 35.4951 8.41066 36.0688 9.35259 36.4665C10.2946 36.8643 11.3188 37.0632 12.4253 37.0632C13.5019 37.0632 14.5112 36.8566 15.4532 36.4435C16.3952 36.0304 17.2176 35.4491 17.9203 34.6995C18.623 33.9499 19.1688 33.055 19.5576 32.0147C19.9464 30.9744 20.1407 29.8119 20.1407 28.5267V8.70015H24.8507V40.8265H20.1856V37.8433C19.1389 38.9753 17.9053 39.8473 16.4849 40.4594C15.0643 41.0712 13.5318 41.3772 11.8871 41.3772C10.2123 41.3772 8.64987 41.0788 7.19946 40.4822C5.74914 39.8856 4.49307 39.0366 3.43154 37.9351C2.37001 36.8336 1.5326 35.5104 0.919597 33.9652C0.306499 32.4201 0 30.6991 0 28.802V8.70015H4.70994V28.5267C4.70994 29.8119 4.90429 30.982 5.29307 32.0377Z" fill="white"/>
<path d="M32.9702 8.70013V20.4033C34.0168 19.3324 35.228 18.4834 36.6036 17.8561C37.9792 17.2289 39.4745 16.9153 41.0892 16.9153C42.764 16.9153 44.3338 17.2365 45.7992 17.879C47.2645 18.5215 48.5353 19.3935 49.612 20.4951C50.6886 21.5966 51.5409 22.8969 52.1689 24.3961C52.7969 25.8954 53.1108 27.4864 53.1108 29.1692C53.1108 30.8519 52.7969 32.4353 52.1689 33.9192C51.5409 35.4032 50.6886 36.6959 49.612 37.7973C48.5353 38.8988 47.2645 39.7708 45.7992 40.4133C44.3338 41.0559 42.7639 41.3771 41.0892 41.3771C39.4744 41.3771 37.9717 41.0635 36.5812 40.4362C35.1906 39.809 33.972 38.9599 32.9253 37.8891V40.8264H28.4397V8.70013H32.9702ZM33.486 32.3359C33.8897 33.3151 34.4505 34.1718 35.1682 34.9061C35.8859 35.6404 36.7232 36.2218 37.6801 36.6501C38.6372 37.0785 39.6688 37.2927 40.7753 37.2927C41.8519 37.2927 42.8686 37.0785 43.8255 36.6501C44.7824 36.2218 45.6122 35.6405 46.3151 34.9061C47.0178 34.1719 47.5785 33.3151 47.9972 32.3359C48.4158 31.3569 48.6252 30.3013 48.6252 29.1692C48.6252 28.0371 48.4158 26.9739 47.9972 25.9795C47.5785 24.9851 47.0178 24.1208 46.3151 23.3865C45.6123 22.6522 44.7825 22.0785 43.8255 21.6655C42.8685 21.2524 41.8518 21.0458 40.7753 21.0458C39.6988 21.0458 38.682 21.2523 37.7251 21.6655C36.7682 22.0786 35.9309 22.6522 35.2131 23.3865C34.4954 24.1208 33.9272 24.9851 33.5085 25.9795C33.0899 26.9739 32.8806 28.0371 32.8806 29.1692C32.8805 30.3013 33.0823 31.3569 33.486 32.3359Z" fill="white"/>
<path d="M55.6658 24.4421C56.2638 22.9734 57.0863 21.6808 58.1328 20.564C59.1794 19.4473 60.4206 18.5676 61.856 17.9251C63.2914 17.2826 64.8465 16.9614 66.5211 16.9614C68.1658 16.9614 69.691 17.2673 71.0965 17.8792C72.502 18.4911 73.7131 19.3402 74.7299 20.4264C75.7466 21.5125 76.5392 22.7976 77.1072 24.2815C77.6755 25.7655 77.9595 27.3795 77.9595 29.1235V30.6381H59.3441C59.4936 31.5866 59.7927 32.4662 60.2412 33.2769C60.6899 34.0877 61.2504 34.7914 61.9233 35.388C62.5961 35.9848 63.3587 36.4514 64.211 36.7878C65.0633 37.1244 65.9678 37.2928 66.9249 37.2928C69.6462 37.2928 71.8442 36.1453 73.5189 33.8506L76.7934 36.3288C75.657 37.8893 74.2516 39.1132 72.5769 40.0004C70.9022 40.8877 69.0182 41.3314 66.9249 41.3314C65.2203 41.3314 63.628 41.0253 62.1477 40.4134C60.6674 39.8016 59.3816 38.9448 58.2901 37.8433C57.1986 36.7417 56.3388 35.4491 55.7108 33.9652C55.0828 32.4813 54.7688 30.8673 54.7688 29.1233C54.7686 27.4712 55.0678 25.9107 55.6658 24.4421ZM61.9682 22.6292C60.6972 23.7154 59.8524 25.1611 59.4338 26.9663H73.3843C72.9955 25.1611 72.1656 23.7154 70.8947 22.6292C69.6237 21.5431 68.136 21 66.4315 21C64.7269 21 63.2391 21.5431 61.9682 22.6292Z" fill="white"/>
<path d="M86.4384 23.157C85.4815 24.2278 85.003 25.6811 85.003 27.517V40.8266H80.4724V17.4202H84.958V20.3116C85.5263 19.3631 86.2664 18.6134 87.1785 18.0627C88.0905 17.5119 89.1746 17.2365 90.4307 17.2365H92.0006V21.5506H90.1166C88.6214 21.5507 87.3953 22.0861 86.4384 23.157Z" fill="white"/>
</g>
<defs>
<clipPath id="clip0_7648_45445">
<rect width="92" height="54" fill="white"/>
</clipPath>
</defs>
</svg>
