<svg fill="none" xmlns="http://www.w3.org/2000/svg" viewBox="0 0 21 22">
  <path d="M1.382 11c0-1.068.866-1.934 1.934-1.934h14.368c1.069 0 1.934.866 1.934 1.934v3.316a.829.829 0 0 1-.828.829H2.21a.829.829 0 0 1-.828-.83V11Z" stroke="#F8F4F2" stroke-width="1.658"/>
  <path d="M4.145 11.829h2.21M14.645 11.829h2.21" stroke="#F8F4F2" stroke-width="1.658" stroke-linecap="round"/>
  <path d="M17.132 7.132h2.21M1.658 7.132h2.21" stroke="#F8F4F2" stroke-width="1.105" stroke-linecap="round"/>
  <path d="m3.316 8.79 1.47-3.9a1.658 1.658 0 0 1 1.55-1.074h8.327c.69 0 1.308.427 1.551 1.073l1.47 3.9M2.763 15.974v1.381c0 .61.495 1.105 1.105 1.105H6.08c.61 0 1.105-.494 1.105-1.105v-1.381M13.816 15.974v1.381c0 .61.494 1.105 1.105 1.105h2.21c.61 0 1.106-.494 1.106-1.105v-1.381" stroke="#F8F4F2" stroke-width="1.658" stroke-linecap="round"/>
</svg>
