<svg width="40" height="40" viewBox="0 0 40 40" fill="none" xmlns="http://www.w3.org/2000/svg">
<path fill-rule="evenodd" clip-rule="evenodd" d="M5.04586 9H32.9539C33.564 9 33.9999 9.47995 33.9999 10V13H36.9999V10C36.9999 7.79086 35.1884 6 32.9539 6H5.04586C2.81132 6 0.999878 7.79086 0.999878 10V31C0.999878 33.2091 2.81132 35 5.04585 35H32.9539C35.1884 35 36.9999 33.2091 36.9999 31V28H33.9999V31C33.9999 31.5201 33.564 32 32.9539 32H5.04585C4.43576 32 3.99988 31.5201 3.99988 31V10C3.99988 9.47995 4.43576 9 5.04586 9Z" fill="#FF4300"/>
<path d="M26.9999 14.5H36.9999C37.276 14.5 37.4999 14.7239 37.4999 15V26C37.4999 26.2761 37.276 26.5 36.9999 26.5H26.9999C25.6192 26.5 24.4999 25.3807 24.4999 24V17C24.4999 15.6193 25.6192 14.5 26.9999 14.5Z" stroke="#FF4300" stroke-width="3"/>
<circle cx="29.4999" cy="20.5" r="1.5" fill="#FF4300"/>
</svg>
