<svg width="41" height="40" viewBox="0 0 41 40" fill="none" xmlns="http://www.w3.org/2000/svg">
<path d="M21.9711 8.06818C21.2934 6.25 19.599 5 17.5658 5C14.9678 5 12.9346 7.04546 12.9346 9.65909C12.9346 12.2727 14.9678 14.3182 17.5658 14.3182H37.3333M31.1206 31.9318C30.4429 33.75 28.7485 35 26.7153 35C24.1173 35 22.0841 32.9545 22.0841 30.3409C22.0841 27.7273 24.2303 25.6818 26.8283 25.6818H37.3333M12.3698 26.25C11.6921 28.0682 9.9977 29.3182 7.96448 29.3182C5.36648 29.3182 3.33325 27.2727 3.33325 24.6591C3.33325 22.0455 5.47943 20 8.07744 20H37.3333" stroke="#FF4300" stroke-width="3" stroke-miterlimit="10" stroke-linecap="round" stroke-linejoin="round"/>
</svg>
